<?xml version="1.0" encoding="UTF-8"?>
<svg id="Layer_1" xmlns="http://www.w3.org/2000/svg" version="1.1" viewBox="0 0 1920 1080">
  <!-- Generator: Adobe Illustrator 30.2.1, SVG Export Plug-In . SVG Version: 2.1.1 Build 1)  -->
  <defs>
    <style>
      .st0 {
        fill: #7a7065;
        font-family: Arial-BoldMT, Arial;
        font-size: 77.14px;
        font-weight: 700;
        isolation: isolate;
      }

      .st1 {
        fill: #e0d8cc;
      }

      .st2 {
        fill: none;
        stroke: #e0d8cc;
        stroke-linecap: square;
        stroke-miterlimit: 15.43;
        stroke-width: 23.14px;
      }
    </style>
  </defs>
  <g>
    <path class="st2" d="M690,732.86v115.71h540v-115.71"/>
    <path class="st2" d="M960,732.86v115.71"/>
    <path class="st2" d="M960,578.57v-231.43"/>
    <path class="st2" d="M690,578.57l212.14-231.43"/>
    <path class="st2" d="M1230,578.57l-212.14-231.43"/>
    <path class="st2" d="M960,266.06v-78.06h173.57v268"/>
  </g>
  <rect class="st1" x="574.29" y="578.57" width="231.43" height="154.29" rx="7.71" ry="7.71"/>
  <text class="st0" transform="translate(668.55 663.43)"><tspan x="0" y="0">1</tspan></text>
  <rect class="st1" x="844.29" y="578.57" width="231.43" height="154.29" rx="7.71" ry="7.71"/>
  <text class="st0" transform="translate(938.55 663.43)"><tspan x="0" y="0">2</tspan></text>
  <rect class="st1" x="1114.29" y="578.57" width="231.43" height="154.29" rx="7.71" ry="7.71"/>
  <text class="st0" transform="translate(1208.55 663.43)"><tspan x="0" y="0">3</tspan></text>
  <rect class="st1" x="844.29" y="237.86" width="231.43" height="154.29" rx="7.71" ry="7.71"/>
  <text class="st0" transform="translate(938.55 333.57)"><tspan x="0" y="0">4</tspan></text>
</svg>