<?xml version="1.0" encoding="UTF-8"?>
<svg id="Layer_1" xmlns="http://www.w3.org/2000/svg" version="1.1" viewBox="0 0 1920 1080">
  <!-- Generator: Adobe Illustrator 30.2.1, SVG Export Plug-In . SVG Version: 2.1.1 Build 1)  -->
  <defs>
    <style>
      .st0 {
        fill: #7a7065;
        font-family: Arial-BoldMT, Arial;
        font-size: 77.14px;
        font-weight: 700;
        isolation: isolate;
      }

      .st1 {
        fill: #e0d8cc;
      }

      .st2 {
        fill: none;
        stroke: #e0d8cc;
        stroke-linecap: square;
        stroke-miterlimit: 15.43;
        stroke-width: 23.14px;
      }
    </style>
  </defs>
  <g>
    <path class="st2" d="M516.43,732.86h810"/>
    <path class="st2" d="M516.43,617.14v115.71"/>
    <path class="st2" d="M786.43,617.14v115.71"/>
    <path class="st2" d="M1056.43,617.14v115.71"/>
    <path class="st2" d="M1326.43,617.14v115.71"/>
    <path class="st2" d="M1326.43,664h173.57v-257h-173.57v108.21"/>
  </g>
  <rect class="st1" x="400.71" y="462.86" width="231.43" height="154.29" rx="7.71" ry="7.71"/>
  <text class="st0" transform="translate(494.98 547.71)"><tspan x="0" y="0">1</tspan></text>
  <rect class="st1" x="670.71" y="462.86" width="231.43" height="154.29" rx="7.71" ry="7.71"/>
  <text class="st0" transform="translate(764.98 547.71)"><tspan x="0" y="0">2</tspan></text>
  <rect class="st1" x="940.71" y="462.86" width="231.43" height="154.29" rx="7.71" ry="7.71"/>
  <text class="st0" transform="translate(1034.98 547.71)"><tspan x="0" y="0">3</tspan></text>
  <rect class="st1" x="1210.71" y="462.86" width="231.43" height="154.29" rx="7.71" ry="7.71"/>
  <text class="st0" transform="translate(1304.98 547.71)"><tspan x="0" y="0">4</tspan></text>
</svg>